<mxfile host="Electron" modified="2024-03-10T09:55:12.968Z" agent="Mozilla/5.0 (Windows NT 10.0; Win64; x64) AppleWebKit/537.36 (KHTML, like Gecko) draw.io/23.1.5 Chrome/120.0.6099.109 Electron/28.1.0 Safari/537.36" etag="nwnHgsSosv3ICshpEohe" version="23.1.5" type="device">
  <diagram name="Страница — 1" id="PSKVE0iFtalKhjqmbyXG">
    <mxGraphModel dx="894" dy="894" grid="1" gridSize="10" guides="1" tooltips="1" connect="1" arrows="1" fold="1" page="1" pageScale="1" pageWidth="827" pageHeight="1169" math="0" shadow="0">
      <root>
        <mxCell id="0" />
        <mxCell id="1" parent="0" />
        <mxCell id="EpG3TmoS_bZudDcCTMOo-6" value="Данные товара на аукционе" style="edgeStyle=orthogonalEdgeStyle;rounded=0;orthogonalLoop=1;jettySize=auto;html=1;exitX=1;exitY=0.5;exitDx=0;exitDy=0;entryX=0;entryY=0.5;entryDx=0;entryDy=0;" edge="1" parent="1" source="EpG3TmoS_bZudDcCTMOo-1" target="EpG3TmoS_bZudDcCTMOo-2">
          <mxGeometry relative="1" as="geometry" />
        </mxCell>
        <mxCell id="EpG3TmoS_bZudDcCTMOo-1" value="Пользователь" style="rounded=0;whiteSpace=wrap;html=1;" vertex="1" parent="1">
          <mxGeometry x="30" y="420" width="120" height="60" as="geometry" />
        </mxCell>
        <mxCell id="EpG3TmoS_bZudDcCTMOo-8" value="Данные товара на аукционе" style="edgeStyle=orthogonalEdgeStyle;rounded=0;orthogonalLoop=1;jettySize=auto;html=1;exitX=1;exitY=0.5;exitDx=0;exitDy=0;entryX=0;entryY=0.5;entryDx=0;entryDy=0;" edge="1" parent="1" source="EpG3TmoS_bZudDcCTMOo-2" target="EpG3TmoS_bZudDcCTMOo-7">
          <mxGeometry relative="1" as="geometry" />
        </mxCell>
        <mxCell id="EpG3TmoS_bZudDcCTMOo-2" value="Просмотр товара на аукционе" style="rounded=1;whiteSpace=wrap;html=1;" vertex="1" parent="1">
          <mxGeometry x="327" y="410" width="114" height="80" as="geometry" />
        </mxCell>
        <mxCell id="EpG3TmoS_bZudDcCTMOo-4" value="" style="endArrow=none;html=1;rounded=0;entryX=1;entryY=0.25;entryDx=0;entryDy=0;exitX=0;exitY=0.25;exitDx=0;exitDy=0;" edge="1" parent="1" source="EpG3TmoS_bZudDcCTMOo-2" target="EpG3TmoS_bZudDcCTMOo-2">
          <mxGeometry width="50" height="50" relative="1" as="geometry">
            <mxPoint x="260" y="460" as="sourcePoint" />
            <mxPoint x="310" y="410" as="targetPoint" />
          </mxGeometry>
        </mxCell>
        <mxCell id="EpG3TmoS_bZudDcCTMOo-7" value="База данных" style="rounded=0;whiteSpace=wrap;html=1;" vertex="1" parent="1">
          <mxGeometry x="620" y="420" width="210" height="60" as="geometry" />
        </mxCell>
        <mxCell id="EpG3TmoS_bZudDcCTMOo-9" value="" style="endArrow=none;html=1;rounded=0;entryX=0.25;entryY=0;entryDx=0;entryDy=0;exitX=0.25;exitY=1;exitDx=0;exitDy=0;" edge="1" parent="1" source="EpG3TmoS_bZudDcCTMOo-7" target="EpG3TmoS_bZudDcCTMOo-7">
          <mxGeometry width="50" height="50" relative="1" as="geometry">
            <mxPoint x="650" y="550" as="sourcePoint" />
            <mxPoint x="700" y="500" as="targetPoint" />
          </mxGeometry>
        </mxCell>
      </root>
    </mxGraphModel>
  </diagram>
</mxfile>
